<svg width="1000" height="1000" viewBox="0 0 1000 1000" fill="none" xmlns="http://www.w3.org/2000/svg">
<g clip-path="url(#clip0_4_104)">
<g filter="url(#filter0_i_4_104)">
<path d="M8.67405 316.065C-0.694724 240.551 49.685 173.845 122.625 152.166L425.686 62.0901C474.186 47.675 525.832 47.675 574.332 62.0901L876.792 151.987C950.019 173.752 1000.5 240.884 990.874 316.668C979.098 409.337 952.175 536.671 890.66 644.283C778.995 839.627 563.381 959.482 500.009 960.007C436.637 960.532 216.552 845.403 106.553 644.283C46.2469 534.02 20.0425 407.697 8.67405 316.065Z" fill="#02BA7D"/>
</g>
<path d="M973.513 314.462C961.858 406.188 935.322 530.89 875.467 635.598C821.19 730.549 741.336 807.592 667.014 860.99C629.9 887.654 594.459 908.21 564.698 922.057C534.23 936.232 511.746 942.409 499.864 942.507C487.945 942.606 465.176 936.845 434.358 923.181C404.238 909.826 368.335 889.783 330.823 863.44C255.703 810.688 175.296 733.502 121.907 635.885C63.1154 528.392 37.2865 404.552 26.0409 313.91C17.8718 248.066 61.672 188.539 127.61 168.94L430.672 78.8648C475.918 65.4167 524.099 65.4167 569.346 78.8648L871.806 168.762C938.005 188.437 981.913 248.356 973.513 314.462Z" stroke="#02BA7D" stroke-width="35"/>
<g filter="url(#filter1_d_4_104)">
<path d="M211.695 624V574.195L396.51 350.074H303.736C291.692 350.074 282.659 350.318 276.637 350.807C270.777 351.295 266.952 353.085 265.162 356.178C263.372 359.27 262.477 364.804 262.477 372.779V398.658H217.311V305.152H490.26V352.76L303.248 579.322H421.412C429.713 579.322 435.816 577.695 439.723 574.439C443.792 571.021 446.477 565.406 447.779 557.594C449.081 549.781 449.732 539.283 449.732 526.1H495.387V624H211.695ZM671.168 630.348C654.892 630.348 639.023 627.662 623.561 622.291C608.261 616.92 595.729 609.514 585.963 600.074V624C580.104 624 573.186 624 565.211 624C557.236 624 550.074 624 543.727 624C537.542 624 533.798 624 532.496 624V524.879H579.371C579.859 526.995 580.348 529.029 580.836 530.982C581.324 532.936 581.812 534.807 582.301 536.598C585.556 553.036 592.229 565.813 602.32 574.928C612.574 583.88 628.525 588.355 650.172 588.355C666.773 588.355 680.12 584.612 690.211 577.125C700.302 569.475 705.348 558.733 705.348 544.898C705.348 535.621 702.581 527.809 697.047 521.461C691.513 515.113 684.026 509.661 674.586 505.104C665.309 500.546 654.892 496.233 643.336 492.164C631.943 488.095 620.305 483.619 608.424 478.736C582.708 468.157 563.583 455.706 551.051 441.383C538.681 427.06 532.496 409.726 532.496 389.381C532.496 372.291 536.728 356.91 545.191 343.238C553.655 329.404 565.862 318.499 581.812 310.523C597.763 302.548 616.969 298.561 639.43 298.561C653.915 298.561 668.32 300.351 682.643 303.932C697.128 307.512 710.556 314.267 722.926 324.195C722.926 319.801 722.844 315.406 722.682 311.012C722.682 306.617 722.682 304.42 722.682 304.42C723.984 304.42 727.239 304.42 732.447 304.42C737.818 304.42 743.84 304.501 750.514 304.664C757.187 304.664 763.128 304.664 768.336 304.664V393.775H721.461C720.81 391.66 720.24 389.625 719.752 387.672C719.426 385.719 719.02 383.766 718.531 381.812C715.764 367.327 709.579 356.259 699.977 348.609C690.374 340.797 675.807 336.891 656.275 336.891C640.488 336.891 627.874 340.634 618.434 348.121C609.156 355.445 604.518 365.13 604.518 377.174C604.518 386.451 607.285 394.182 612.818 400.367C618.515 406.389 626.246 411.76 636.012 416.48C645.94 421.038 657.333 425.595 670.191 430.152C683.049 434.71 696.64 440.081 710.963 446.266C723.495 451.474 734.97 457.984 745.387 465.797C755.966 473.447 764.43 482.968 770.777 494.361C777.125 505.592 780.299 519.264 780.299 535.377C780.299 552.467 775.904 568.255 767.115 582.74C758.326 597.063 745.794 608.619 729.518 617.408C713.242 626.035 693.792 630.348 671.168 630.348Z" fill="white"/>
</g>
</g>
<defs>
<filter id="filter0_i_4_104" x="7.55359" y="51.2787" width="984.497" height="958.73" filterUnits="userSpaceOnUse" color-interpolation-filters="sRGB">
<feFlood flood-opacity="0" result="BackgroundImageFix"/>
<feBlend mode="normal" in="SourceGraphic" in2="BackgroundImageFix" result="shape"/>
<feColorMatrix in="SourceAlpha" type="matrix" values="0 0 0 0 0 0 0 0 0 0 0 0 0 0 0 0 0 0 127 0" result="hardAlpha"/>
<feOffset dy="50"/>
<feGaussianBlur stdDeviation="50"/>
<feComposite in2="hardAlpha" operator="arithmetic" k2="-1" k3="1"/>
<feColorMatrix type="matrix" values="0 0 0 0 1 0 0 0 0 1 0 0 0 0 1 0 0 0 0.5 0"/>
<feBlend mode="normal" in2="shape" result="effect1_innerShadow_4_104"/>
</filter>
<filter id="filter1_d_4_104" x="161.695" y="263.561" width="668.604" height="431.787" filterUnits="userSpaceOnUse" color-interpolation-filters="sRGB">
<feFlood flood-opacity="0" result="BackgroundImageFix"/>
<feColorMatrix in="SourceAlpha" type="matrix" values="0 0 0 0 0 0 0 0 0 0 0 0 0 0 0 0 0 0 127 0" result="hardAlpha"/>
<feOffset dy="15"/>
<feGaussianBlur stdDeviation="25"/>
<feComposite in2="hardAlpha" operator="out"/>
<feColorMatrix type="matrix" values="0 0 0 0 0 0 0 0 0 0 0 0 0 0 0 0 0 0 0.5 0"/>
<feBlend mode="normal" in2="BackgroundImageFix" result="effect1_dropShadow_4_104"/>
<feBlend mode="normal" in="SourceGraphic" in2="effect1_dropShadow_4_104" result="shape"/>
</filter>
<clipPath id="clip0_4_104">
<rect width="1000" height="1000" fill="white"/>
</clipPath>
</defs>
</svg>
